<?xml version="1.0" encoding="utf-8"?>
<!-- Generator: Adobe Illustrator 24.0.2, SVG Export Plug-In . SVG Version: 6.00 Build 0)  -->
<svg version="1.1" id="Layer_1" xmlns="http://www.w3.org/2000/svg" xmlns:xlink="http://www.w3.org/1999/xlink" x="0px" y="0px"
	 viewBox="0 0 512 512" style="enable-background:new 0 0 512 512;" xml:space="preserve">
<style type="text/css">
	.st0{fill:#FF0066;}
</style>
<path class="st0" d="M256,483.5c-7.3,0-14.3-2.6-19.8-7.4C215.5,458,195.6,441,178,426l-0.1-0.1C126.3,382,81.8,344,50.8,306.6
	C16.1,264.8,0,225.2,0,181.9C0,139.8,14.4,101,40.6,72.6C67.1,43.8,103.5,28,143,28c29.6,0,56.6,9.3,80.4,27.8
	c12,9.3,22.9,20.7,32.5,34c9.6-13.3,20.5-24.7,32.5-34C312.4,37.3,339.4,28,369,28c39.5,0,75.9,15.8,102.4,44.6
	C497.6,101,512,139.8,512,181.9c0,43.3-16.1,82.9-50.8,124.7c-31,37.4-75.5,75.4-127.1,119.3c-17.6,15-37.6,32-58.3,50.2
	C270.3,480.9,263.3,483.5,256,483.5z M152.3,74.2c-28.5,0-54.7,11.4-73.8,32.1c-19.3,21-30,50-30,81.7c0,33.4,12.4,63.3,40.3,97
	c26.9,32.5,67,66.6,113.4,106.2l0.1,0.1c16.2,13.8,34.6,29.5,53.7,46.2c19.2-16.8,37.7-32.5,53.9-46.3
	c46.4-39.5,86.4-73.7,113.4-106.2c27.9-33.6,40.3-63.5,40.3-97c0-31.7-10.7-60.7-30-81.7c-19.1-20.7-45.3-32.1-73.8-32.1
	c-20.9,0-40.1,6.6-57,19.7c-15.1,11.7-25.6,26.4-31.8,36.8c-3.2,5.3-8.8,8.5-14.9,8.5c-6.2,0-11.8-3.2-14.9-8.5
	c-6.2-10.3-16.7-25.1-31.8-36.8C192.4,80.8,173.2,74.2,152.3,74.2z"/>
</svg>
