<svg xmlns="http://www.w3.org/2000/svg" viewBox="0 0 512 512" width="128px" height="128px"><path fill="#4f6a4f" d="M7.9,256C7.9,119,119,7.9,256,7.9C393,7.9,504.1,119,504.1,256c0,137-111.1,248.1-248.1,248.1C119,504.1,7.9,393,7.9,256z"/><path fill="#FFF" d="M133.7 240.2H378.29999999999995V400H133.7z"/><path fill="#FFF" d="M349.7,340.1c-7.7,0-14-6.3-14-14v-136c0-44-35.8-79.8-79.8-79.8s-79.8,35.8-79.8,79.8v136c0,7.7-6.3,14-14,14s-14-6.3-14-14v-136c0-59.4,48.3-107.7,107.7-107.7s107.7,48.3,107.7,107.7v136C363.7,333.9,357.4,340.1,349.7,340.1z"/><path fill="#4f6a4f" d="M282.6,309.3c0-14.7-11.9-26.6-26.6-26.6c-14.7,0-26.6,11.9-26.6,26.6c0,9.4,4.8,17.6,12.1,22.3c0,4.2,0,9.4,0,11.5c0,8,6.5,14.5,14.5,14.5s14.5-6.5,14.5-14.5c0-2,0-7.2,0-11.5C277.8,326.9,282.6,318.6,282.6,309.3z"/></svg>