<svg height="511pt" viewBox="0 -101 511.9992 511" width="511pt" xmlns="http://www.w3.org/2000/svg" fill="#2b3b2b">
    <path d="m160.320312 13.585938-124.847656 243.988281-6.429687-17.09375c-2.917969-7.757813-11.570313-11.675781-19.320313-8.757813-7.753906 2.917969-11.675781 11.566406-8.757812 19.320313 0 0 18.421875 48.949219 18.445312 49.007812 2.152344 5.550781 7.882813 9.554688 13.96875 9.554688l278.40625-.003907zm-3.039062 132.789062 68.167969 133.226562h-136.339844zm0 0"/>
    <path d="m493.492188 300.035156 17.484374-44.96875c3-7.722656-.824218-16.414062-8.546874-19.417968-7.726563-3-16.414063.824218-19.414063 8.546874l-5.375 13.820313-127.980469-249.71875c-2.027344-3.960937-5.707031-6.816406-10.050781-7.796875h-152.285156l133.207031 260.335938 8.5-17.699219c3.585938-7.464844 12.542969-10.613281 20.015625-7.027344 7.46875 3.585937 10.613281 12.546875 7.027344 20.015625l-25.023438 53.476562h148.371094c6.675781 0 11.441406-2.917968 14.070313-9.566406zm0 0"/>
</svg>