<svg fill="" height="511pt" viewBox="0 -100 511.99944 511" width="511pt" xmlns="http://www.w3.org/2000/svg">
    <path d="m349.054688 8.625c-3.367188-6.65625-8.210938-8.125-13.335938-8.125h-158.550781c-6.589844 0-9.933594 1.960938-13.351563 8.167969l-128.339844 250.820312-6.433593-17.09375c-2.917969-7.753906-11.574219-11.671875-19.320313-8.757812-7.753906 2.917969-11.675781 11.566406-8.757812 19.320312l18.375 48.839844c3.546875 9.238281 9.402344 9.71875 14.128906 9.71875h445.953125c9.066406 0 12.253906-4.59375 14.070313-9.566406l17.484374-44.96875c3-7.722657-.824218-16.414063-8.546874-19.414063-7.71875-3.003906-16.414063.824219-19.414063 8.542969l-5.375 13.824219-128.566406-251.265625m-223.222657 272.847656 51.316407-100.296875 51.320312 100.296875zm136.335938 0-71.664062-140.058594c-2.566407-5.011719-7.722657-8.167969-13.355469-8.167969-5.632813 0-10.789063 3.15625-13.355469 8.167969l-71.660156 140.058594h-34.25l119.265625-233.085937 119.265625 233.085937zm82.613281 0s11.695313-24.417969 11.867188-24.894531c.515625-1.429688.800781-2.898438.871093-4.355469.277344-5.839844-2.890624-11.554687-8.492187-14.242187-7.46875-3.589844-16.429687-.4375-20.015625 7.027343l-8.496094 17.699219-118.839844-232.25h124.851563l128.441406 251.015625zm0 0"/>
</svg>