<?xml version="1.0" encoding="utf-8"?>
<!-- Generator: Adobe Illustrator 24.0.2, SVG Export Plug-In . SVG Version: 6.00 Build 0)  -->
<svg version="1.1" id="Layer_1" xmlns="http://www.w3.org/2000/svg" xmlns:xlink="http://www.w3.org/1999/xlink" x="0px" y="0px"
	 viewBox="0 0 511 511" style="enable-background:new 0 0 511 511;" xml:space="preserve">
<style type="text/css">
	.st0{fill:#2B3B2B;}
</style>
<path class="st0" d="M160,114.9L35.4,358.4L29,341.3c-2.9-7.7-30.9,2.8-28,10.5c0,0,18.4,48.9,18.4,48.9c2.1,5.5,7.9,9.5,13.9,9.5
	l277.9,0L160,114.9z M157,247.4l68,133H88.9L157,247.4z"/>
<path class="st0" d="M492.5,400.8l17.5-44.9c3-7.7-24.9-18.6-27.9-10.8l-5.4,13.8L349,109.6c-2-4-5.7-6.8-10-7.8H187l132.9,259.8
	l8.5-17.7c3.6-7.5,30.6,5.5,27,13l-25,53.4h148.1C485.1,410.3,489.9,407.4,492.5,400.8z"/>
</svg>
